<svg fill="#4A81F7" xmlns="http://www.w3.org/2000/svg" xmlns:xlink="http://www.w3.org/1999/xlink" x="0px" y="0px" viewBox="0 0 21 18" style="enable-background:new 0 0 21 18;" xml:space="preserve"><g transform="translate(-1029.632 -238)">	<path d="M1029.6,238c0.1,0,0.1,0,0.2,0h8.8c0,0.1,0,0.1,0,0.2c0,3,0.1,6.1,0,9.1c-0.1,4.8-4,8.6-8.8,8.7  c-0.1,0-0.1,0-0.2,0v-3c0.3,0,0.6,0,0.9-0.1c2.5-0.4,4.5-2.3,5-4.8c0.1-0.4,0.1-0.7,0.1-1.1h-6L1029.6,238z"></path>	<path d="M1050.6,247.6c-0.1,0.4-0.1,0.7-0.2,1.1c-0.4,2.3-1.7,4.3-3.5,5.6c-1.5,1.1-3.2,1.7-5.1,1.7  c-0.1,0-0.1,0-0.2,0c0,0,0,0,0,0v-3c2,0,3.8-1,4.9-2.6c0.7-1,1.1-2.2,1.1-3.4h-6v-9c0.1,0,0.1,0,0.2,0h8.6c0.1,0,0.1,0,0.2,0  L1050.6,247.6z"></path></g></svg>