<!--?xml version="1.0" encoding="utf-8"?-->
<!-- Svg Vector Icons : http://www.onlinewebfonts.com/icon -->

<svg version="1.1" xmlns="http://www.w3.org/2000/svg" xmlns:xlink="http://www.w3.org/1999/xlink" x="0px" y="0px" viewBox="0 0 256 256" enable-background="new 0 0 256 256" xml:space="preserve">
<metadata> Svg Vector Icons : http://www.onlinewebfonts.com/icon </metadata>
<g><g><path fill="#FFFFFF" data-title="Layer 0" xs="0" d="M145.4,246h-41.2c-3.1,0-5.6-2.5-5.6-5.6v-96.9H69.7c-3.1,0-5.6-2.5-5.6-5.6v-40c0-3.1,2.5-5.6,5.6-5.6h28.8V68.5c0-36.1,21.9-58.5,57-58.5c15.7,0,28.4,1.2,31.6,1.6c2.8,0.4,4.9,2.8,4.9,5.6V53c0,3.1-2.5,5.6-5.6,5.6l-21.1,0c-12.2,0-14.2,4.1-14.2,13.8v19.9H185c1.6,0,3.2,0.7,4.2,1.9c1.1,1.2,1.6,2.8,1.4,4.4l-5.2,40c-0.4,2.8-2.8,4.9-5.6,4.9H151v96.9C151,243.5,148.5,246,145.4,246z M109.8,234.7h30v-96.9c0-3.1,2.5-5.6,5.6-5.6h29.5l3.7-28.7h-33.2c-3.1,0-5.6-2.5-5.6-5.6V72.4c0-10.8,2.7-25.1,25.5-25.1h15.5v-25c-5.8-0.5-15-1-25.2-1c-28.6,0-45.7,17.6-45.7,47.2v29.5c0,3.1-2.5,5.6-5.6,5.6H75.3v28.7h28.9c3.1,0,5.6,2.5,5.6,5.6V234.7z"/></g></g>
</svg>