<?xml version="1.0" encoding="utf-8"?>
<!-- Svg Vector Icons : http://www.onlinewebfonts.com/icon -->
<!DOCTYPE svg PUBLIC "-//W3C//DTD SVG 1.1//EN" "http://www.w3.org/Graphics/SVG/1.1/DTD/svg11.dtd">
<svg version="1.1" xmlns="http://www.w3.org/2000/svg" xmlns:xlink="http://www.w3.org/1999/xlink" x="0px" y="0px" viewBox="0 0 256 256" enable-background="new 0 0 256 256" xml:space="preserve">
<metadata> Svg Vector Icons : http://www.onlinewebfonts.com/icon </metadata>
<g><g><path fill="#FFFFFF" d="M128,10C62.6,10,10,62.6,10,128s52.6,118,118,118s118-52.6,118-118S193.4,10,128,10z M128,235.3C69,235.3,20.7,187,20.7,128S69,20.7,128,20.7S235.3,69,235.3,128S187,235.3,128,235.3z M138.7,102.8c0-4.3,0.5-6.4,7-6.4h9.1V80.3h-14.5c-17.2,0-23.1,8-23.1,21.5v10.7h-10.7v16.1h10.7v48.3h21.5v-48.3h14.5l2.1-16.1h-16.1L138.7,102.8z"/></g></g>
</svg>