<?xml version="1.0" encoding="utf-8"?>
<!-- Svg Vector Icons : http://www.onlinewebfonts.com/icon -->
<!DOCTYPE svg PUBLIC "-//W3C//DTD SVG 1.1//EN" "http://www.w3.org/Graphics/SVG/1.1/DTD/svg11.dtd">
<svg version="1.1" xmlns="http://www.w3.org/2000/svg" xmlns:xlink="http://www.w3.org/1999/xlink" x="0px" y="0px" viewBox="0 0 256 256" enable-background="new 0 0 256 256" xml:space="preserve">
<metadata> Svg Vector Icons : http://www.onlinewebfonts.com/icon </metadata>
<g><g><g><path fill="#000000" d="M130.4,110.7h113.7c1.3,7,1.9,13.7,1.9,20.1c0,22.7-4.8,42.9-14.3,60.8c-9.5,17.8-23.1,31.8-40.7,41.8c-17.6,10-37.8,15.1-60.6,15.1c-16.4,0-32-3.2-46.9-9.5c-14.8-6.3-27.6-14.9-38.4-25.6c-10.8-10.8-19.3-23.6-25.6-38.4S10,144.4,10,128c0-16.4,3.2-32,9.5-46.9s14.9-27.6,25.6-38.4c10.8-10.8,23.6-19.3,38.4-25.6c14.8-6.3,30.5-9.5,46.9-9.5c31.4,0,58.3,10.5,80.8,31.5l-32.8,31.5c-12.9-12.4-28.9-18.7-48-18.7c-13.5,0-26,3.4-37.4,10.2c-11.5,6.8-20.5,16-27.2,27.7c-6.7,11.6-10,24.4-10,38.2s3.3,26.5,10,38.2c6.7,11.7,15.8,20.9,27.2,27.7c11.5,6.8,23.9,10.2,37.4,10.2c9.1,0,17.4-1.3,25.1-3.8c7.6-2.5,13.9-5.7,18.8-9.4c4.9-3.8,9.2-8.1,12.9-12.9c3.7-4.8,6.3-9.4,8.1-13.6c1.7-4.3,2.9-8.4,3.5-12.2h-68.4V110.7L130.4,110.7z"/></g></g></g>
</svg>