<!--?xml version="1.0" encoding="utf-8"?-->
<!-- Svg Vector Icons : http://www.onlinewebfonts.com/icon -->

<svg version="1.1" xmlns="http://www.w3.org/2000/svg" xmlns:xlink="http://www.w3.org/1999/xlink" x="0px" y="0px" viewBox="0 0 256 256" enable-background="new 0 0 256 256" xml:space="preserve">
<metadata> Svg Vector Icons : http://www.onlinewebfonts.com/icon </metadata>
<g><g><path fill="#FFFFFF" data-title="Layer 0" xs="0" d="M190.5,10H65.5C35,10,10,35,10,65.5v124.9C10,221,35,246,65.5,246h124.9c30.5,0,55.5-25,55.5-55.5V65.5C246,35,221,10,190.5,10z M232.1,190.5c0,23-18.7,41.6-41.6,41.6h-125c-22.9,0-41.6-18.7-41.6-41.6v-83.3h44.5c-4,8.5-6.3,17.8-6.3,27.8c0,36.4,29.6,65.9,65.9,65.9c36.4,0,65.9-29.6,65.9-65.9c0-9.9-2.4-19.3-6.3-27.8h44.5L232.1,190.5L232.1,190.5z M180.1,134.9c0,28.7-23.4,52.1-52.1,52.1s-52.1-23.4-52.1-52.1c0-28.7,23.4-52.1,52.1-52.1S180.1,106.2,180.1,134.9z M178.7,93.3C166.6,78.6,148.5,69,128,69c-20.5,0-38.6,9.6-50.7,24.3H23.9V65.5c0-22.9,18.7-41.6,41.6-41.6h124.9c23,0,41.6,18.7,41.6,41.6v27.8H178.7z M210.6,47.8v18c0,4.1-3.4,7.5-7.5,7.5h-19c-4.2,0-7.6-3.4-7.6-7.5v-18c0-4.1,3.4-7.5,7.6-7.5h19C207.3,40.2,210.6,43.6,210.6,47.8z"/></g></g>
</svg>