<?xml version="1.0" encoding="utf-8"?>
<!-- Svg Vector Icons : http://www.onlinewebfonts.com/icon -->
<!DOCTYPE svg PUBLIC "-//W3C//DTD SVG 1.1//EN" "http://www.w3.org/Graphics/SVG/1.1/DTD/svg11.dtd">
<svg version="1.1" xmlns="http://www.w3.org/2000/svg" xmlns:xlink="http://www.w3.org/1999/xlink" x="0px" y="0px" viewBox="0 0 256 256" enable-background="new 0 0 256 256" xml:space="preserve">
<metadata> Svg Vector Icons : http://www.onlinewebfonts.com/icon </metadata>
<g><g><g><path fill="#FFFFFF" d="M211.4,44.6C189.1,22.3,159.5,10,128,10c-31.5,0-61.1,12.3-83.4,34.6C22.3,66.8,10,96.5,10,128c0,31.5,12.3,61.2,34.6,83.4C66.9,233.7,96.5,246,128,246c31.5,0,61.1-12.3,83.4-34.6c22.3-22.3,34.6-51.9,34.6-83.4C246,96.5,233.7,66.9,211.4,44.6z M206.2,206.2c-20.9,20.9-48.7,32.4-78.2,32.4c-29.5,0-57.3-11.5-78.2-32.4c-20.9-20.9-32.4-48.7-32.4-78.2c0-29.5,11.5-57.3,32.4-78.2C70.7,28.9,98.5,17.4,128,17.4c29.5,0,57.3,11.5,78.2,32.4c20.9,20.9,32.4,48.7,32.4,78.2C238.6,157.5,227.1,185.3,206.2,206.2z"/><path fill="#FFFFFF" d="M208.2,63c-1.3-1.6-3.6-1.8-5.2-0.5c-1.6,1.3-1.8,3.6-0.5,5.2c13.8,17,21.4,38.4,21.4,60.3c0,25.6-10,49.7-28.1,67.8c-18.1,18.1-42.2,28.1-67.8,28.1c-23.6,0-46.3-8.7-63.9-24.4c-1.5-1.3-3.9-1.2-5.2,0.3c-1.3,1.5-1.2,3.9,0.3,5.2c18.9,17,43.4,26.3,68.8,26.3c27.6,0,53.5-10.7,73-30.2s30.2-45.4,30.2-73C231.3,104.4,223.1,81.3,208.2,63z"/><path fill="#FFFFFF" d="M32.1,128c0-52.9,43-95.9,95.9-95.9c23.6,0,46.3,8.7,63.9,24.4c1.5,1.3,3.9,1.2,5.2-0.3c1.3-1.5,1.2-3.9-0.3-5.2c-18.9-17-43.4-26.3-68.8-26.3c-27.6,0-53.5,10.7-73,30.2c-19.5,19.5-30.2,45.4-30.2,73c0,23.6,8.2,46.7,23,65c0.7,0.9,1.8,1.4,2.9,1.4c0.8,0,1.6-0.3,2.3-0.8c1.6-1.3,1.8-3.6,0.5-5.2C39.7,171.4,32.1,149.9,32.1,128z"/><path fill="#FFFFFF" d="M87.4,68.8C77.3,68.8,69,77.1,69,87.3v81.1c0,10.2,8.3,18.4,18.4,18.4h81.1c10.2,0,18.4-8.3,18.4-18.4V87.3c0-10.2-8.3-18.4-18.4-18.4H87.4L87.4,68.8z M168.6,179.5H87.4c-6.1,0-11.1-5-11.1-11.1v-55.3h21.9c-2.2,4.5-3.5,9.5-3.5,14.8c0,18.3,14.9,33.2,33.2,33.2c18.3,0,33.2-14.9,33.2-33.2c0-5.3-1.3-10.3-3.5-14.8h21.9v55.3C179.6,174.5,174.7,179.5,168.6,179.5z M153.8,127.8c0,14.2-11.6,25.8-25.8,25.8c-14.2,0-25.8-11.6-25.8-25.8c0-14.2,11.6-25.8,25.8-25.8C142.2,102,153.8,113.6,153.8,127.8z M179.6,87.3v18.4h-26.9c-6.1-6.8-14.9-11.1-24.7-11.1c-9.8,0-18.6,4.3-24.7,11.1H76.4V87.3c0-4.8,3.1-8.9,7.4-10.4v21.5c0,2,1.7,3.7,3.7,3.7s3.7-1.7,3.7-3.7V76.2h3.7v22.1c0,2,1.7,3.7,3.7,3.7c2,0,3.7-1.7,3.7-3.7V76.2h66.4C174.7,76.2,179.6,81.2,179.6,87.3z"/><path fill="#000000" d="M128,109.4c-2,0-3.7,1.7-3.7,3.7s1.7,3.7,3.7,3.7c6.1,0,11.1,5,11.1,11.1c0,2,1.7,3.7,3.7,3.7s3.7-1.7,3.7-3.7C146.4,117.7,138.2,109.4,128,109.4z"/><path fill="#000000" d="M153.8,83.6v14.8c0,2,1.7,3.7,3.7,3.7h14.8c2,0,3.7-1.7,3.7-3.7V83.6c0-2-1.7-3.7-3.7-3.7h-14.8C155.5,79.9,153.8,81.5,153.8,83.6z M161.2,87.3h7.4v7.4h-7.4V87.3z"/></g><g></g><g></g><g></g><g></g><g></g><g></g><g></g><g></g><g></g><g></g><g></g><g></g><g></g><g></g><g></g></g></g>
</svg>