<!--?xml version="1.0" encoding="utf-8"?-->
<!-- Svg Vector Icons : http://www.onlinewebfonts.com/icon -->

<svg version="1.1" xmlns="http://www.w3.org/2000/svg" xmlns:xlink="http://www.w3.org/1999/xlink" x="0px" y="0px" viewBox="0 0 256 256" enable-background="new 0 0 256 256" xml:space="preserve">
<metadata> Svg Vector Icons : http://www.onlinewebfonts.com/icon </metadata>
<g><g><path fill="#FFFFFF" data-title="Layer 0" xs="0" d="M63.5,37c0,7-2.5,12.9-7.6,17.8c-5.1,4.9-11.6,7.3-19.7,7.3c-7.7,0-14-2.5-18.9-7.3C12.5,50,10,44,10,37c0-7.3,2.5-13.4,7.4-18.1c4.9-4.7,11.4-7.1,19.4-7.1c8,0,14.4,2.4,19.1,7.1C60.6,23.6,63.2,29.7,63.5,37L63.5,37 M11.6,244.2V82.1h50.3v162L11.6,244.2L11.6,244.2 M91.8,134c0-15-0.4-32.3-1.1-51.9h43.5l2.6,22.5h1.1c10.5-17.5,27.1-26.2,49.8-26.2c17.5,0,31.5,5.9,42.2,17.6c10.7,11.7,16,29.1,16,52.2v96h-50.3v-89.6c0-23.4-8.6-35.1-25.7-35.1c-12.2,0-20.8,6.3-25.7,18.9c-1.1,2.1-1.6,6.3-1.6,12.6v93.3H91.8V134L91.8,134"/></g></g>
</svg>