<!--?xml version="1.0" encoding="utf-8"?-->
<!-- Svg Vector Icons : http://www.onlinewebfonts.com/icon -->

<svg version="1.1" xmlns="http://www.w3.org/2000/svg" xmlns:xlink="http://www.w3.org/1999/xlink" x="0px" y="0px" viewBox="0 0 256 256" enable-background="new 0 0 256 256" xml:space="preserve">
<metadata> Svg Vector Icons : http://www.onlinewebfonts.com/icon </metadata>
<g><g><path fill="#FFFFFF" data-title="Layer 0" xs="0" d="M153.9,98.2c-5,0-8.7,1.3-11.6,2.8c-0.5-1.6-2-2.9-3.8-2.5h-22c-2.2-0.4-3.9,1.4-3.3,3.7v81c-0.7,2.1,1.1,3.8,3.3,3.7h22c2.2,0.1,3.9-1.6,3.9-3.8v-48.9c0,0-0.1-2.4,1.4-4c1.2-1.3,3.2-1.9,6-1.9c4.7,0,6.8,1.9,7.6,6.2v48.6c-0.8,2.2,1,3.9,3.2,3.8h23.1c2.2,0.1,3.9-1.6,3.2-3.8v-50.3C187.7,107.3,169.4,98.2,153.9,98.2L153.9,98.2z M179.8,179.5h-15.3v-45c0-8.7-5.6-14.1-14.6-14.1c-5.1,0-9.1,1.5-11.8,4.5c-3.8,4.1-3.5,9.3-2.7,10.5v44.2h-14.9v-73.4h14.1v2.5c0,1.5,0.8,2.9,2.2,3.5s2.9,0.5,4.1-0.4l1-0.8c3-2.3,6.1-4.8,11.9-4.8c6.1,0,25.9,1.9,25.9,26.8L179.8,179.5L179.8,179.5z M91.2,61.5c-8.3,0-15,6.7-15,15c0,8.3,6.7,15,15,15c8.3,0,15-6.7,15-15C106.2,68.2,99.5,61.5,91.2,61.5z M91.2,83.6c-3.9,0-7.1-3.2-7.1-7.1s3.2-7.1,7.1-7.1c3.9,0,7.1,3.2,7.1,7.1S95.1,83.6,91.2,83.6z M101.7,98.2H79.9c-2.2,0-3.9,1.8-3.4,4v81c-0.6,2.1,1.2,3.8,3.4,3.7h21.8c2.2,0.1,3.9-1.6,3.9-3.8v-81C105.7,100,103.9,98.2,101.7,98.2L101.7,98.2z M98.6,179.5H83.8v-73.4h14.8V179.5z M128,10C62.9,10,10,62.9,10,128c0,65.1,52.9,118,118,118c65.1,0,118-52.9,118-118C246,62.9,193.1,10,128,10z M128,238.1c-60.7,0-110.1-49.4-110.1-110.1C17.9,67.3,67.3,17.9,128,17.9c60.7,0,110.1,49.4,110.1,110.1C238.1,188.7,188.7,238.1,128,238.1z"/></g></g>
</svg>